<svg version="1.1"
     width="200.5px" height="100.5px"
     viewBox="0 0 400.5 200.5"
     xmlns="http://www.w3.org/2000/svg">
   <defs>
     <pattern id="smallGrid" width="10" height="10" patternUnits="userSpaceOnUse">
       <path d="M 10 0 L 0 0 0 10" fill="none" stroke="gray" stroke-width="0.5"/>
     </pattern>
     <pattern id="grid" width="100" height="100" patternUnits="userSpaceOnUse">
       <rect width="100" height="100" fill="url(#smallGrid)"/>
       <path d="M 100 0 L 0 0 0 100" fill="none" stroke="gray" stroke-width="1"/>
     </pattern>
   </defs>
   <rect width="100%" height="100%" fill="white"/>
   <rect width="100%" height="100%" fill="url(#grid)" />
   
    <rect       x="60"       y="20"      width="121"      height="21"  />
                            <rect x="140" y="40" width="41" height="11"/>
                        <rect x="120" y="50" width="51" height="11"/>
                      <rect x="110" y="60" width="51" height="11"/>
                    <rect x="100" y="70" width="41" height="11"/> 
                <rect x="80" y="80" width="51" height="11"/>
              <rect x="70" y="90" width="51" height="11"/>
            <rect x="60" y="100" width="41" height="11"/>
        <rect x="40" y="110" width="51" height="11"/>
      <rect x="30" y="120" width="51" height="11"/>
    <rect x="20" y="130" width="41" height="11"/>
    <rect       x="20"      y="140"     width="121"      height="21"   />
    
    <rect x="180" y="80" width="11" height="31"/>
    <rect x="170" y="70" width="11" height="11"/>
    <rect x="190" y="110" width="11" height="11"/>
    <rect x="170" y="90" width="31" height="11"/>
    <rect x="160" y="100" width="11" height="11"/>
    <rect x="150" y="110" width="11" height="11"/>
    <rect x="200" y="80" width="11" height="11"/>
    <rect x="210" y="70" width="11" height="11"/>
    
                        <rect         x="300"         y="20"         width="61"         height="21"        />
                    <rect x="280" y="30" height="11" width="21"/>           <rect x="340" y="30" width="31" height="21"/>
                  <rect x="260" y="40" height="11" width="51"/>                  <rect x="350" y="50" width="21" height="11"/> 
                <rect x="250" y="50" height="11" width="41"/>                      <rect x="350" y="60" width="11" height="11"/>
              <rect x="240" y="60" height="11" width="41"/>                       
              <rect x="240" y="70" height="11" width="31"/>
              <rect x="230" y="80" height="31" width="31"/>              <rect x="330" y="110" width="11" height="11"/>
                <rect x="240" y="110" height="11" width="21"/>         <rect x="310" y="120" width="31" height="11"/>
                  <rect x="240" y="120" height="21" width="31"/>       <rect x="300" y="130" width="41" height="11"/>
                    <rect x="250" y="130" height="21" width="21"/>   <rect x="310" y="140" width="21" height="11"/>
                        <rect         x="250"         y="140"         height="21"         width="61"        />
</svg>